<?xml version="1.0" encoding="iso-8859-1"?>
<!-- Generator: Adobe Illustrator 18.1.1, SVG Export Plug-In . SVG Version: 6.00 Build 0)  -->
<svg xmlns="http://www.w3.org/2000/svg" xmlns:xlink="http://www.w3.org/1999/xlink" version="1.1" id="Capa_1" x="0px" y="0px" viewBox="0 0 33.283 33.283" style="enable-background:new 0 0 33.283 33.283;" xml:space="preserve" width="512px" height="512px">
<g>
	<path d="M3.805,8.964c-4.24,3.229-5.061,9.283-1.832,13.523s9.284,5.061,13.524,1.832   c1.902-1.449,3.109-3.469,3.579-5.637c-1.646,0.028-4.01-0.21-6.988-1.263c3.21-0.523,5.394-2.227,6.745-3.718   c-0.327-1.02-0.818-2.006-1.505-2.907C14.1,6.556,8.044,5.735,3.805,8.964z M11.189,12.084c-0.668,0.508-1.621,0.379-2.127-0.288   c-0.508-0.667-0.378-1.618,0.288-2.127c0.668-0.508,1.62-0.379,2.127,0.288S11.855,11.577,11.189,12.084z M21.468,16.289   c0,0.592-0.09,1.152-0.225,1.685l2.238,1.786c0.349-1.065,0.547-2.235,0.547-3.471c0-1.332-0.241-2.58-0.645-3.71l-2.228,1.663   C21.356,14.872,21.468,15.564,21.468,16.289z M27.632,10.012l-2.236,1.67c0.511,1.395,0.806,2.955,0.806,4.608   c0,1.575-0.269,3.067-0.732,4.411l2.205,1.758c0.688-1.862,1.089-3.952,1.089-6.167C28.76,14.03,28.349,11.9,27.632,10.012z    M29.476,23.25l2.203,1.758c1.021-2.612,1.604-5.574,1.604-8.719c0-3.139-0.584-6.095-1.601-8.705l-2.236,1.671   c0.81,2.114,1.275,4.501,1.275,7.034C30.724,18.793,30.267,21.155,29.476,23.25z" fill="#ca7ff5"/>
</g>
<g>
</g>
<g>
</g>
<g>
</g>
<g>
</g>
<g>
</g>
<g>
</g>
<g>
</g>
<g>
</g>
<g>
</g>
<g>
</g>
<g>
</g>
<g>
</g>
<g>
</g>
<g>
</g>
<g>
</g>
</svg>
